<svg id="Layer_1" data-name="Layer 1" xmlns="http://www.w3.org/2000/svg" xmlns:xlink="http://www.w3.org/1999/xlink" viewBox="0 0 80 68"><defs><style>.cls-1{fill:#f9fbef;}.cls-2{clip-path:url(#clip-path);}</style><clipPath id="clip-path"><path class="cls-1" d="M66,13.88C63.38,11.14,59.55,8,51.67,7.74c-8.1-.23-11.81,2.62-15.14,4.75A22.43,22.43,0,0,0,33,5.87l-.26-.28L33,5.38C36.78,2.8,42.31,0,51.73,0,66.91,0,73.54,9.56,74.31,10.67c1.57,2.29,3.55,6.62,3.78,8.92a7.12,7.12,0,0,1,0,.84H69.63A17.09,17.09,0,0,0,66,13.88Z"/></clipPath></defs><title>logonavbarPurple</title><path class="cls-1" d="M66,13.88C63.38,11.14,59.55,8,51.67,7.74c-8.1-.23-11.81,2.62-15.14,4.75A22.43,22.43,0,0,0,33,5.87l-.26-.28L33,5.38C36.78,2.8,42.31,0,51.73,0,66.91,0,73.54,9.56,74.31,10.67c1.57,2.29,3.55,6.62,3.78,8.92a7.12,7.12,0,0,1,0,.84H69.63A17.09,17.09,0,0,0,66,13.88Z"/><g class="cls-2"><polygon class="cls-1" points="32.69 14.46 33.23 20.43 32.69 20.43 32.69 14.46"/><polygon class="cls-1" points="34.09 0 35.95 20.43 33.23 20.43 32.69 14.46 32.69 0 34.09 0"/><polygon class="cls-1" points="36.8 0 38.66 20.43 35.95 20.43 34.09 0 36.8 0"/><polygon class="cls-1" points="39.52 0 41.37 20.43 38.66 20.43 36.8 0 39.52 0"/><polygon class="cls-1" points="42.23 0 44.09 20.43 41.37 20.43 39.52 0 42.23 0"/><polygon class="cls-1" points="42.4 0 44.25 20.43 44.09 20.43 42.23 0 42.4 0"/><polygon class="cls-1" points="42.56 0 44.42 20.43 44.25 20.43 42.4 0 42.56 0"/><polygon class="cls-1" points="42.73 0 44.59 20.43 44.42 20.43 42.56 0 42.73 0"/><polygon class="cls-1" points="42.9 0 44.76 20.43 44.59 20.43 42.73 0 42.9 0"/><polygon class="cls-1" points="43.07 0 44.93 20.43 44.76 20.43 42.9 0 43.07 0"/><polygon class="cls-1" points="43.24 0 45.09 20.43 44.93 20.43 43.07 0 43.24 0"/><polygon class="cls-1" points="43.41 0 45.26 20.43 45.09 20.43 43.24 0 43.41 0"/><polygon class="cls-1" points="43.58 0 45.43 20.43 45.26 20.43 43.41 0 43.58 0"/><polygon class="cls-1" points="43.74 0 45.6 20.43 45.43 20.43 43.58 0 43.74 0"/><polygon class="cls-1" points="43.91 0 45.77 20.43 45.6 20.43 43.74 0 43.91 0"/><polygon class="cls-1" points="44.08 0 45.94 20.43 45.77 20.43 43.91 0 44.08 0"/><polygon class="cls-1" points="44.25 0 46.11 20.43 45.94 20.43 44.08 0 44.25 0"/><polygon class="cls-1" points="44.42 0 46.27 20.43 46.11 20.43 44.25 0 44.42 0"/><polygon class="cls-1" points="44.59 0 46.44 20.43 46.27 20.43 44.42 0 44.59 0"/><polygon class="cls-1" points="44.75 0 46.61 20.43 46.44 20.43 44.59 0 44.75 0"/><polygon class="cls-1" points="44.92 0 46.78 20.43 46.61 20.43 44.75 0 44.92 0"/><polygon class="cls-1" points="45.09 0 46.95 20.43 46.78 20.43 44.92 0 45.09 0"/><polygon class="cls-1" points="45.26 0 47.12 20.43 46.95 20.43 45.09 0 45.26 0"/><polygon class="cls-1" points="45.43 0 47.29 20.43 47.12 20.43 45.26 0 45.43 0"/><polygon class="cls-1" points="45.6 0 47.45 20.43 47.29 20.43 45.43 0 45.6 0"/><polygon class="cls-1" points="45.77 0 47.62 20.43 47.45 20.43 45.6 0 45.77 0"/><polygon class="cls-1" points="45.93 0 47.79 20.43 47.62 20.43 45.77 0 45.93 0"/><polygon class="cls-1" points="46.1 0 47.96 20.43 47.79 20.43 45.93 0 46.1 0"/><polygon class="cls-1" points="46.27 0 48.13 20.43 47.96 20.43 46.1 0 46.27 0"/><polygon class="cls-1" points="46.44 0 48.3 20.43 48.13 20.43 46.27 0 46.44 0"/><polygon class="cls-1" points="46.61 0 48.47 20.43 48.3 20.43 46.44 0 46.61 0"/><polygon class="cls-1" points="46.78 0 48.63 20.43 48.47 20.43 46.61 0 46.78 0"/><polygon class="cls-1" points="46.95 0 48.8 20.43 48.63 20.43 46.78 0 46.95 0"/><polygon class="cls-1" points="47.11 0 48.97 20.43 48.8 20.43 46.95 0 47.11 0"/><polygon class="cls-1" points="47.28 0 49.14 20.43 48.97 20.43 47.11 0 47.28 0"/><polygon class="cls-1" points="47.45 0 49.31 20.43 49.14 20.43 47.28 0 47.45 0"/><polygon class="cls-1" points="47.62 0 49.48 20.43 49.31 20.43 47.45 0 47.62 0"/><polygon class="cls-1" points="47.79 0 49.64 20.43 49.48 20.43 47.62 0 47.79 0"/><polygon class="cls-1" points="47.95 0 49.81 20.43 49.64 20.43 47.79 0 47.95 0"/><polygon class="cls-1" points="48.12 0 49.98 20.43 49.81 20.43 47.95 0 48.12 0"/><polygon class="cls-1" points="48.29 0 50.15 20.43 49.98 20.43 48.12 0 48.29 0"/><polygon class="cls-1" points="48.46 0 50.32 20.43 50.15 20.43 48.29 0 48.46 0"/><polygon class="cls-1" points="48.63 0 50.49 20.43 50.32 20.43 48.46 0 48.63 0"/><polygon class="cls-1" points="48.8 0 50.66 20.43 50.49 20.43 48.63 0 48.8 0"/><polygon class="cls-1" points="48.97 0 50.82 20.43 50.66 20.43 48.8 0 48.97 0"/><polygon class="cls-1" points="49.13 0 50.99 20.43 50.82 20.43 48.97 0 49.13 0"/><polygon class="cls-1" points="49.3 0 51.16 20.43 50.99 20.43 49.13 0 49.3 0"/><polygon class="cls-1" points="49.47 0 51.33 20.43 51.16 20.43 49.3 0 49.47 0"/><polygon class="cls-1" points="49.64 0 51.5 20.43 51.33 20.43 49.47 0 49.64 0"/><polygon class="cls-1" points="49.81 0 51.67 20.43 51.5 20.43 49.64 0 49.81 0"/><polygon class="cls-1" points="49.98 0 51.83 20.43 51.67 20.43 49.81 0 49.98 0"/><polygon class="cls-1" points="50.15 0 52 20.43 51.83 20.43 49.98 0 50.15 0"/><polygon class="cls-1" points="50.31 0 52.17 20.43 52 20.43 50.15 0 50.31 0"/><polygon class="cls-1" points="50.48 0 52.34 20.43 52.17 20.43 50.31 0 50.48 0"/><polygon class="cls-1" points="50.65 0 52.51 20.43 52.34 20.43 50.48 0 50.65 0"/><polygon class="cls-1" points="50.82 0 52.68 20.43 52.51 20.43 50.65 0 50.82 0"/><polygon class="cls-1" points="50.99 0 52.84 20.43 52.68 20.43 50.82 0 50.99 0"/><polygon class="cls-1" points="51.16 0 53.01 20.43 52.84 20.43 50.99 0 51.16 0"/><polygon class="cls-1" points="51.33 0 53.18 20.43 53.01 20.43 51.16 0 51.33 0"/><polygon class="cls-1" points="51.49 0 53.35 20.43 53.18 20.43 51.33 0 51.49 0"/><polygon class="cls-1" points="51.66 0 53.52 20.43 53.35 20.43 51.49 0 51.66 0"/><polygon class="cls-1" points="51.83 0 53.69 20.43 53.52 20.43 51.66 0 51.83 0"/><polygon class="cls-1" points="52 0 53.86 20.43 53.69 20.43 51.83 0 52 0"/><polygon class="cls-1" points="52.17 0 54.02 20.43 53.86 20.43 52 0 52.17 0"/><polygon class="cls-1" points="52.34 0 54.19 20.43 54.02 20.43 52.17 0 52.34 0"/><polygon class="cls-1" points="52.5 0 54.36 20.43 54.19 20.43 52.34 0 52.5 0"/><polygon class="cls-1" points="52.67 0 54.53 20.43 54.36 20.43 52.5 0 52.67 0"/><polygon class="cls-1" points="52.84 0 54.7 20.43 54.53 20.43 52.67 0 52.84 0"/><polygon class="cls-1" points="53.01 0 54.87 20.43 54.7 20.43 52.84 0 53.01 0"/><polygon class="cls-1" points="53.18 0 55.03 20.43 54.87 20.43 53.01 0 53.18 0"/><polygon class="cls-1" points="53.35 0 55.2 20.43 55.03 20.43 53.18 0 53.35 0"/><polygon class="cls-1" points="53.52 0 55.37 20.43 55.2 20.43 53.35 0 53.52 0"/><polygon class="cls-1" points="53.68 0 55.54 20.43 55.37 20.43 53.52 0 53.68 0"/><polygon class="cls-1" points="53.85 0 55.71 20.43 55.54 20.43 53.68 0 53.85 0"/><polygon class="cls-1" points="54.02 0 55.88 20.43 55.71 20.43 53.85 0 54.02 0"/><polygon class="cls-1" points="54.19 0 56.05 20.43 55.88 20.43 54.02 0 54.19 0"/><polygon class="cls-1" points="54.36 0 56.21 20.43 56.05 20.43 54.19 0 54.36 0"/><polygon class="cls-1" points="54.53 0 56.38 20.43 56.21 20.43 54.36 0 54.53 0"/><polygon class="cls-1" points="54.69 0 56.55 20.43 56.38 20.43 54.53 0 54.69 0"/><polygon class="cls-1" points="54.86 0 56.72 20.43 56.55 20.43 54.69 0 54.86 0"/><polygon class="cls-1" points="55.03 0 56.89 20.43 56.72 20.43 54.86 0 55.03 0"/><polygon class="cls-1" points="55.2 0 57.06 20.43 56.89 20.43 55.03 0 55.2 0"/><polygon class="cls-1" points="55.37 0 57.23 20.43 57.06 20.43 55.2 0 55.37 0"/><polygon class="cls-1" points="55.54 0 57.39 20.43 57.23 20.43 55.37 0 55.54 0"/><polygon class="cls-1" points="55.7 0 57.56 20.43 57.39 20.43 55.54 0 55.7 0"/><polygon class="cls-1" points="55.87 0 57.73 20.43 57.56 20.43 55.7 0 55.87 0"/><polygon class="cls-1" points="56.04 0 57.9 20.43 57.73 20.43 55.87 0 56.04 0"/><polygon class="cls-1" points="56.21 0 58.07 20.43 57.9 20.43 56.04 0 56.21 0"/><polygon class="cls-1" points="56.38 0 58.24 20.43 58.07 20.43 56.21 0 56.38 0"/><polygon class="cls-1" points="56.55 0 58.4 20.43 58.24 20.43 56.38 0 56.55 0"/><polygon class="cls-1" points="56.72 0 58.57 20.43 58.4 20.43 56.55 0 56.72 0"/><polygon class="cls-1" points="56.88 0 58.74 20.43 58.57 20.43 56.72 0 56.88 0"/><polygon class="cls-1" points="57.05 0 58.91 20.43 58.74 20.43 56.88 0 57.05 0"/><polygon class="cls-1" points="57.22 0 59.08 20.43 58.91 20.43 57.05 0 57.22 0"/><polygon class="cls-1" points="57.39 0 59.25 20.43 59.08 20.43 57.22 0 57.39 0"/><polygon class="cls-1" points="57.56 0 59.41 20.43 59.25 20.43 57.39 0 57.56 0"/><polygon class="cls-1" points="57.73 0 59.58 20.43 59.41 20.43 57.56 0 57.73 0"/><polygon class="cls-1" points="57.9 0 59.75 20.43 59.58 20.43 57.73 0 57.9 0"/><polygon class="cls-1" points="58.06 0 59.92 20.43 59.75 20.43 57.9 0 58.06 0"/><polygon class="cls-1" points="58.23 0 60.09 20.43 59.92 20.43 58.06 0 58.23 0"/><polygon class="cls-1" points="58.4 0 60.26 20.43 60.09 20.43 58.23 0 58.4 0"/><polygon class="cls-1" points="58.57 0 60.43 20.43 60.26 20.43 58.4 0 58.57 0"/><polygon class="cls-1" points="58.74 0 60.59 20.43 60.43 20.43 58.57 0 58.74 0"/><polygon class="cls-1" points="58.91 0 60.76 20.43 60.59 20.43 58.74 0 58.91 0"/><polygon class="cls-1" points="59.07 0 60.93 20.43 60.76 20.43 58.91 0 59.07 0"/><polygon class="cls-1" points="59.24 0 61.1 20.43 60.93 20.43 59.07 0 59.24 0"/><polygon class="cls-1" points="59.41 0 61.27 20.43 61.1 20.43 59.24 0 59.41 0"/><polygon class="cls-1" points="59.58 0 61.44 20.43 61.27 20.43 59.41 0 59.58 0"/><polygon class="cls-1" points="59.75 0 61.6 20.43 61.44 20.43 59.58 0 59.75 0"/><polygon class="cls-1" points="59.92 0 61.77 20.43 61.6 20.43 59.75 0 59.92 0"/><polygon class="cls-1" points="60.09 0 61.94 20.43 61.77 20.43 59.92 0 60.09 0"/><polygon class="cls-1" points="60.25 0 62.11 20.43 61.94 20.43 60.09 0 60.25 0"/><polygon class="cls-1" points="60.42 0 62.28 20.43 62.11 20.43 60.25 0 60.42 0"/><polygon class="cls-1" points="60.59 0 62.45 20.43 62.28 20.43 60.42 0 60.59 0"/><polygon class="cls-1" points="60.76 0 62.62 20.43 62.45 20.43 60.59 0 60.76 0"/><polygon class="cls-1" points="60.93 0 62.78 20.43 62.62 20.43 60.76 0 60.93 0"/><polygon class="cls-1" points="61.1 0 62.95 20.43 62.78 20.43 60.93 0 61.1 0"/><polygon class="cls-1" points="61.26 0 63.12 20.43 62.95 20.43 61.1 0 61.26 0"/><polygon class="cls-1" points="61.43 0 63.29 20.43 63.12 20.43 61.26 0 61.43 0"/><polygon class="cls-1" points="61.6 0 63.46 20.43 63.29 20.43 61.43 0 61.6 0"/><polygon class="cls-1" points="61.77 0 63.63 20.43 63.46 20.43 61.6 0 61.77 0"/><polygon class="cls-1" points="61.94 0 63.8 20.43 63.63 20.43 61.77 0 61.94 0"/><polygon class="cls-1" points="62.11 0 63.96 20.43 63.8 20.43 61.94 0 62.11 0"/><polygon class="cls-1" points="62.27 0 64.13 20.43 63.96 20.43 62.11 0 62.27 0"/><polygon class="cls-1" points="62.44 0 64.3 20.43 64.13 20.43 62.27 0 62.44 0"/><polygon class="cls-1" points="62.61 0 64.47 20.43 64.3 20.43 62.44 0 62.61 0"/><polygon class="cls-1" points="62.78 0 64.64 20.43 64.47 20.43 62.61 0 62.78 0"/><polygon class="cls-1" points="62.95 0 64.81 20.43 64.64 20.43 62.78 0 62.95 0"/><polygon class="cls-1" points="63.12 0 64.97 20.43 64.81 20.43 62.95 0 63.12 0"/><polygon class="cls-1" points="63.29 0 65.14 20.43 64.97 20.43 63.12 0 63.29 0"/><polygon class="cls-1" points="63.45 0 65.31 20.43 65.14 20.43 63.29 0 63.45 0"/><polygon class="cls-1" points="63.62 0 65.48 20.43 65.31 20.43 63.45 0 63.62 0"/><polygon class="cls-1" points="63.79 0 65.65 20.43 65.48 20.43 63.62 0 63.79 0"/><polygon class="cls-1" points="63.96 0 65.82 20.43 65.65 20.43 63.79 0 63.96 0"/><polygon class="cls-1" points="64.13 0 65.98 20.43 65.82 20.43 63.96 0 64.13 0"/><polygon class="cls-1" points="64.3 0 66.15 20.43 65.98 20.43 64.13 0 64.3 0"/><polygon class="cls-1" points="64.47 0 66.32 20.43 66.15 20.43 64.3 0 64.47 0"/><polygon class="cls-1" points="64.63 0 66.49 20.43 66.32 20.43 64.47 0 64.63 0"/><polygon class="cls-1" points="64.8 0 66.66 20.43 66.49 20.43 64.63 0 64.8 0"/><polygon class="cls-1" points="64.97 0 66.83 20.43 66.66 20.43 64.8 0 64.97 0"/><polygon class="cls-1" points="65.14 0 67 20.43 66.83 20.43 64.97 0 65.14 0"/><polygon class="cls-1" points="65.31 0 67.17 20.43 67 20.43 65.14 0 65.31 0"/><polygon class="cls-1" points="65.48 0 67.33 20.43 67.17 20.43 65.31 0 65.48 0"/><polygon class="cls-1" points="65.64 0 67.5 20.43 67.33 20.43 65.48 0 65.64 0"/><polygon class="cls-1" points="65.81 0 67.67 20.43 67.5 20.43 65.64 0 65.81 0"/><polygon class="cls-1" points="65.98 0 67.84 20.43 67.67 20.43 65.81 0 65.98 0"/><polygon class="cls-1" points="66.15 0 68.01 20.43 67.84 20.43 65.98 0 66.15 0"/><polygon class="cls-1" points="66.32 0 68.17 20.43 68.01 20.43 66.15 0 66.32 0"/><polygon class="cls-1" points="66.49 0 68.34 20.43 68.17 20.43 66.32 0 66.49 0"/><polygon class="cls-1" points="66.66 0 68.51 20.43 68.34 20.43 66.49 0 66.66 0"/><polygon class="cls-1" points="66.82 0 68.68 20.43 68.51 20.43 66.66 0 66.82 0"/><polygon class="cls-1" points="66.99 0 68.85 20.43 68.68 20.43 66.82 0 66.99 0"/><polygon class="cls-1" points="67.16 0 69.02 20.43 68.85 20.43 66.99 0 67.16 0"/><polygon class="cls-1" points="67.33 0 69.19 20.43 69.02 20.43 67.16 0 67.33 0"/><polygon class="cls-1" points="67.5 0 69.36 20.43 69.19 20.43 67.33 0 67.5 0"/><polygon class="cls-1" points="67.67 0 69.52 20.43 69.36 20.43 67.5 0 67.67 0"/><polygon class="cls-1" points="67.83 0 69.69 20.43 69.52 20.43 67.67 0 67.83 0"/><polygon class="cls-1" points="68 0 69.86 20.43 69.69 20.43 67.83 0 68 0"/><polygon class="cls-1" points="68.17 0 70.03 20.43 69.86 20.43 68 0 68.17 0"/><polygon class="cls-1" points="68.34 0 70.2 20.43 70.03 20.43 68.17 0 68.34 0"/><polygon class="cls-1" points="68.51 0 70.37 20.43 70.2 20.43 68.34 0 68.51 0"/><polygon class="cls-1" points="68.68 0 70.53 20.43 70.37 20.43 68.51 0 68.68 0"/><polygon class="cls-1" points="68.84 0 70.7 20.43 70.53 20.43 68.68 0 68.84 0"/><polygon class="cls-1" points="69.01 0 70.87 20.43 70.7 20.43 68.84 0 69.01 0"/><polygon class="cls-1" points="69.18 0 71.04 20.43 70.87 20.43 69.01 0 69.18 0"/><polygon class="cls-1" points="69.35 0 71.21 20.43 71.04 20.43 69.18 0 69.35 0"/><polygon class="cls-1" points="69.52 0 71.38 20.43 71.21 20.43 69.35 0 69.52 0"/><polygon class="cls-1" points="69.69 0 71.55 20.43 71.38 20.43 69.52 0 69.69 0"/><polygon class="cls-1" points="69.86 0 71.71 20.43 71.55 20.43 69.69 0 69.86 0"/><polygon class="cls-1" points="70.03 0 71.88 20.43 71.71 20.43 69.86 0 70.03 0"/><polygon class="cls-1" points="70.19 0 72.05 20.43 71.88 20.43 70.03 0 70.19 0"/><polygon class="cls-1" points="70.36 0 72.22 20.43 72.05 20.43 70.19 0 70.36 0"/><polygon class="cls-1" points="70.53 0 72.39 20.43 72.22 20.43 70.36 0 70.53 0"/><polygon class="cls-1" points="70.7 0 72.56 20.43 72.39 20.43 70.53 0 70.7 0"/><polygon class="cls-1" points="70.87 0 72.72 20.43 72.56 20.43 70.7 0 70.87 0"/><polygon class="cls-1" points="71.03 0 72.89 20.43 72.72 20.43 70.87 0 71.03 0"/><polygon class="cls-1" points="71.2 0 73.06 20.43 72.89 20.43 71.03 0 71.2 0"/><polygon class="cls-1" points="71.37 0 73.23 20.43 73.06 20.43 71.2 0 71.37 0"/><polygon class="cls-1" points="71.54 0 73.4 20.43 73.23 20.43 71.37 0 71.54 0"/><polygon class="cls-1" points="71.71 0 73.57 20.43 73.4 20.43 71.54 0 71.71 0"/><polygon class="cls-1" points="71.88 0 73.73 20.43 73.57 20.43 71.71 0 71.88 0"/><polygon class="cls-1" points="72.05 0 73.9 20.43 73.73 20.43 71.88 0 72.05 0"/><polygon class="cls-1" points="72.22 0 74.07 20.43 73.9 20.43 72.05 0 72.22 0"/><polygon class="cls-1" points="72.38 0 74.24 20.43 74.07 20.43 72.22 0 72.38 0"/><polygon class="cls-1" points="72.55 0 74.41 20.43 74.24 20.43 72.38 0 72.55 0"/><polygon class="cls-1" points="72.72 0 74.58 20.43 74.41 20.43 72.55 0 72.72 0"/><polygon class="cls-1" points="72.89 0 74.75 20.43 74.58 20.43 72.72 0 72.89 0"/><polygon class="cls-1" points="73.06 0 74.91 20.43 74.75 20.43 72.89 0 73.06 0"/><polygon class="cls-1" points="73.22 0 75.08 20.43 74.91 20.43 73.06 0 73.22 0"/><polygon class="cls-1" points="73.39 0 75.25 20.43 75.08 20.43 73.22 0 73.39 0"/><polygon class="cls-1" points="73.56 0 75.42 20.43 75.25 20.43 73.39 0 73.56 0"/><polygon class="cls-1" points="73.73 0 75.59 20.43 75.42 20.43 73.56 0 73.73 0"/><polygon class="cls-1" points="73.9 0 75.76 20.43 75.59 20.43 73.73 0 73.9 0"/><polygon class="cls-1" points="74.07 0 75.92 20.43 75.76 20.43 73.9 0 74.07 0"/><polygon class="cls-1" points="74.24 0 76.09 20.43 75.92 20.43 74.07 0 74.24 0"/><polygon class="cls-1" points="74.41 0 76.26 20.43 76.09 20.43 74.24 0 74.41 0"/><polygon class="cls-1" points="74.57 0 76.43 20.43 76.26 20.43 74.41 0 74.57 0"/><polygon class="cls-1" points="74.74 0 76.6 20.43 76.43 20.43 74.57 0 74.74 0"/><polygon class="cls-1" points="74.91 0 76.77 20.43 76.6 20.43 74.74 0 74.91 0"/><polygon class="cls-1" points="75.08 0 76.94 20.43 76.77 20.43 74.91 0 75.08 0"/><polygon class="cls-1" points="75.25 0 77.1 20.43 76.94 20.43 75.08 0 75.25 0"/><polygon class="cls-1" points="75.42 0 77.27 20.43 77.1 20.43 75.25 0 75.42 0"/><polygon class="cls-1" points="75.58 0 77.44 20.43 77.27 20.43 75.42 0 75.58 0"/><polygon class="cls-1" points="75.75 0 77.61 20.43 77.44 20.43 75.58 0 75.75 0"/><polygon class="cls-1" points="75.92 0 77.78 20.43 77.61 20.43 75.75 0 75.92 0"/><polygon class="cls-1" points="76.09 0 77.95 20.43 77.78 20.43 75.92 0 76.09 0"/><polygon class="cls-1" points="76.26 0 78.11 20.43 77.95 20.43 76.09 0 76.26 0"/><polygon class="cls-1" points="76.43 0 78.15 18.91 78.15 20.43 78.11 20.43 76.26 0 76.43 0"/><polygon class="cls-1" points="76.59 0 78.15 17.06 78.15 18.91 76.43 0 76.59 0"/><polygon class="cls-1" points="76.76 0 78.15 15.21 78.15 17.06 76.59 0 76.76 0"/><polygon class="cls-1" points="76.93 0 78.15 13.35 78.15 15.21 76.76 0 76.93 0"/><polygon class="cls-1" points="77.1 0 78.15 11.5 78.15 13.35 76.93 0 77.1 0"/><polygon class="cls-1" points="77.27 0 78.15 9.65 78.15 11.5 77.1 0 77.27 0"/><polygon class="cls-1" points="77.44 0 78.15 7.79 78.15 9.65 77.27 0 77.44 0"/><polygon class="cls-1" points="77.61 0 78.15 5.94 78.15 7.79 77.44 0 77.61 0"/><polygon class="cls-1" points="77.77 0 78.15 4.09 78.15 5.94 77.61 0 77.77 0"/><polygon class="cls-1" points="77.94 0 78.15 2.23 78.15 4.09 77.77 0 77.94 0"/><polygon class="cls-1" points="78.11 0 78.15 0.38 78.15 2.23 77.94 0 78.11 0"/><polygon class="cls-1" points="78.15 0.38 78.11 0 78.15 0 78.15 0.38"/></g><path class="cls-1" d="M0,28.74v0h0v0Z"/><path class="cls-1" d="M59.63,28.82a7.93,7.93,0,0,0-7.93,7.93H71.63a30.37,30.37,0,0,1-5.08,14.42c-4,5.6-9.6,7.89-19.28,7.89-6.1,0-10.29-2.13-15-7.6a54.12,54.12,0,0,1-3.77-5.17,86.3,86.3,0,0,0-7.1-9.44,17.68,17.68,0,0,0-1.78-1.79,24,24,0,0,0,3.84-1.8c6.46-3.73,9.87-9.27,9.87-16A15.41,15.41,0,0,0,25.82,3.63,25.79,25.79,0,0,0,13.45,0H0V8H0V8H13.32a20.71,20.71,0,0,1,6.54,1.5c3.76,1.61,5.59,4.16,5.59,7.8,0,3.86-1.93,6.85-5.91,9.15a18.83,18.83,0,0,1-9.43,2.42H1.79c-.58,0-1.17,0-1.74-.05v8H1.62a31.75,31.75,0,0,1,4.92.65c4,.87,7,2.43,8.93,4.65A80.19,80.19,0,0,1,22,50.71a60.51,60.51,0,0,0,4.32,5.89C32.49,63.88,38.77,67,47.27,67,59.51,67,67.44,63.53,73,55.79s6.73-16.71,6.8-22.95l0-4Z"/></svg>