<svg id="Layer_1" data-name="Layer 1" xmlns="http://www.w3.org/2000/svg" xmlns:xlink="http://www.w3.org/1999/xlink" viewBox="0 0 80 68"><defs><style>.cls-1{fill:none;}.cls-2{clip-path:url(#clip-path);}.cls-3{fill:#040320;}.cls-4{fill:#060422;}.cls-5{fill:#070523;}.cls-6{fill:#080624;}.cls-7{fill:#090725;}.cls-8{fill:#0a0726;}.cls-9{fill:#0a0826;}.cls-10{fill:#0b0927;}.cls-11{fill:#0c0928;}.cls-12{fill:#0c0a28;}.cls-13{fill:#0d0a29;}.cls-14{fill:#0e0b2a;}.cls-15{fill:#0f0c2b;}.cls-16{fill:#0f0c2c;}.cls-17{fill:#100d2c;}.cls-18{fill:#110e2d;}.cls-19{fill:#120e2e;}.cls-20{fill:#130f2f;}.cls-21{fill:#141030;}.cls-22{fill:#141131;}.cls-23{fill:#151131;}.cls-24{fill:#161232;}.cls-25{fill:#171333;}.cls-26{fill:#181334;}.cls-27{fill:#191435;}.cls-28{fill:#1a1536;}.cls-29{fill:#1a1537;}.cls-30{fill:#1b1637;}.cls-31{fill:#1c1738;}.cls-32{fill:#1d1839;}.cls-33{fill:#1e183a;}.cls-34{fill:#1f193b;}.cls-35{fill:#201a3c;}.cls-36{fill:#211b3d;}.cls-37{fill:#211b3e;}.cls-38{fill:#221c3f;}.cls-39{fill:#231d40;}.cls-40{fill:#241e40;}.cls-41{fill:#251e41;}.cls-42{fill:#261f42;}.cls-43{fill:#272043;}.cls-44{fill:#282144;}.cls-45{fill:#292145;}.cls-46{fill:#2a2246;}.cls-47{fill:#2b2347;}.cls-48{fill:#2b2448;}.cls-49{fill:#2c2549;}.cls-50{fill:#2d254a;}.cls-51{fill:#2e264b;}.cls-52{fill:#2f274c;}.cls-53{fill:#30284d;}.cls-54{fill:#31284d;}.cls-55{fill:#32294e;}.cls-56{fill:#332a4f;}.cls-57{fill:#342b50;}.cls-58{fill:#352c51;}.cls-59{fill:#362c52;}.cls-60{fill:#372d53;}.cls-61{fill:#382e54;}.cls-62{fill:#392f55;}.cls-63{fill:#3a3056;}.cls-64{fill:#3b3057;}.cls-65{fill:#3c3158;}.cls-66{fill:#3c3259;}.cls-67{fill:#3d335a;}.cls-68{fill:#3e345b;}.cls-69{fill:#3f345c;}.cls-70{fill:#40355d;}.cls-71{fill:#41365e;}.cls-72{fill:#42375f;}.cls-73{fill:#433860;}.cls-74{fill:#443861;}.cls-75{fill:#453962;}.cls-76{fill:#463a63;}.cls-77{fill:#473b64;}.cls-78{fill:#483c65;}.cls-79{fill:#493c66;}.cls-80{fill:#4a3d67;}.cls-81{fill:#4b3e68;}.cls-82{fill:#4c3f69;}.cls-83{fill:#4d406a;}.cls-84{fill:#4e416b;}.cls-85{fill:#4f416c;}.cls-86{fill:#50426d;}.cls-87{fill:#51436e;}.cls-88{fill:#52446f;}.cls-89{fill:#534570;}.cls-90{fill:#544571;}.cls-91{fill:#554672;}.cls-92{fill:#564773;}.cls-93{fill:#574874;}.cls-94{fill:#584975;}.cls-95{fill:#594a76;}.cls-96{fill:#5a4a77;}.cls-97{fill:#5b4b78;}.cls-98{fill:#5c4c79;}.cls-99{fill:#5d4d7a;}.cls-100{fill:#5e4e7b;}.cls-101{fill:#5f4f7c;}.cls-102{fill:#60507d;}.cls-103{fill:#61507e;}.cls-104{fill:#62517f;}.cls-105{fill:#635280;}.cls-106{fill:#645381;}.cls-107{fill:#655482;}.cls-108{fill:#665583;}.cls-109{fill:#675584;}.cls-110{fill:#685685;}.cls-111{fill:#695786;}.cls-112{fill:#6a5887;}.cls-113{fill:#6b5988;}.cls-114{fill:#6c5a89;}.cls-115{fill:#6d5a8a;}.cls-116{fill:#6e5b8b;}.cls-117{fill:#6f5c8c;}.cls-118{fill:#705d8d;}.cls-119{fill:#715e8e;}.cls-120{fill:#725f8f;}.cls-121{fill:#736090;}.cls-122{fill:#746091;}.cls-123{fill:#756192;}.cls-124{fill:#766293;}.cls-125{fill:#776394;}.cls-126{fill:#786496;}.cls-127{fill:#7a6597;}.cls-128{fill:#7b6698;}.cls-129{fill:#7c6699;}.cls-130{fill:#7d679a;}.cls-131{fill:#7e689b;}.cls-132{fill:#7f699c;}.cls-133{fill:#806a9d;}.cls-134{fill:#816b9e;}.cls-135{fill:#826c9f;}.cls-136{fill:#836da0;}.cls-137{fill:#846da1;}.cls-138{fill:#856ea2;}.cls-139{fill:#866fa3;}.cls-140{fill:#8770a4;}.cls-141{fill:#8871a5;}.cls-142{fill:#8972a6;}.cls-143{fill:#8a73a7;}.cls-144{fill:#8b73a8;}.cls-145{fill:#8c74a9;}.cls-146{fill:#8d75ab;}.cls-147{fill:#8e76ac;}.cls-148{fill:#8f77ad;}.cls-149{fill:#9078ae;}.cls-150{fill:#9179af;}.cls-151{fill:#937ab0;}.cls-152{fill:#947ab1;}.cls-153{fill:#957bb2;}.cls-154{fill:#967cb3;}.cls-155{fill:#977db4;}.cls-156{fill:#987eb5;}.cls-157{fill:#997fb6;}.cls-158{fill:#9a80b7;}.cls-159{fill:#9b81b8;}.cls-160{fill:#9c82b9;}.cls-161{fill:#9d82ba;}.cls-162{fill:#9e83bc;}.cls-163{fill:#9f84bd;}.cls-164{fill:#a085be;}.cls-165{fill:#a186bf;}.cls-166{fill:#a287c0;}.cls-167{fill:#a388c1;}.cls-168{fill:#a589c2;}.cls-169{fill:#a689c3;}.cls-170{fill:#a78ac4;}.cls-171{fill:#a88bc5;}.cls-172{fill:#a98cc6;}.cls-173{fill:#aa8dc7;}.cls-174{fill:#ab8ec8;}.cls-175{fill:#ac8fc9;}.cls-176{fill:#ad90cb;}.cls-177{fill:#ae91cc;}.cls-178{fill:#af91cd;}.cls-179{fill:#b092ce;}.cls-180{fill:#b193cf;}.cls-181{fill:#b294d0;}.cls-182{fill:#b395d1;}.cls-183{fill:#b596d2;}.cls-184{fill:#b697d3;}.cls-185{fill:#b798d4;}.cls-186{fill:#b899d5;}.cls-187{fill:#b99ad6;}.cls-188{fill:#ba9ad8;}.cls-189{fill:#bb9bd9;}.cls-190{fill:#bc9cda;}.cls-191{fill:#bd9ddb;}.cls-192{fill:#be9edc;}.cls-193{fill:#bf9fdd;}.cls-194{fill:#c0a0de;}.cls-195{fill:#c1a1df;}.cls-196{fill:#c3a2e0;}.cls-197{fill:#c4a3e1;}.cls-198{fill:#c5a3e2;}.cls-199{fill:#c6a4e4;}.cls-200{fill:#c7a5e5;}.cls-201{fill:#c8a6e6;}.cls-202{fill:#c9a7e7;}.cls-203{fill:#caa8e8;}.cls-204{fill:#cba9e9;}.cls-205{fill:#ccaaea;}.cls-206{fill:#cdabeb;}.cls-207{fill:#ceacec;}.cls-208{fill:#d0aced;}.cls-209{fill:#d1adee;}.cls-210{fill:#d2aef0;}.cls-211{fill:#d3aff1;}.cls-212{fill:#d4b0f2;}.cls-213{fill:#d5b1f3;}.cls-214{fill:#d6b2f4;}.cls-215{fill:#d7b3f5;}.cls-216{fill:#d8b4f6;}.cls-217{fill:#d9b5f7;}.cls-218{fill:#dab6f8;}.cls-219{fill:#dcb6f9;}.cls-220{fill:#ddb7fb;}.cls-221{fill:#e1bbff;}</style><clipPath id="clip-path"><path class="cls-1" d="M66,13.88C63.38,11.14,59.55,8,51.67,7.74c-8.1-.23-11.81,2.62-15.14,4.75A22.43,22.43,0,0,0,33,5.87l-.26-.28L33,5.38C36.78,2.8,42.31,0,51.73,0,66.91,0,73.54,9.56,74.31,10.67c1.57,2.29,3.55,6.62,3.78,8.92a7.12,7.12,0,0,1,0,.84H69.63A17.09,17.09,0,0,0,66,13.88Z"/></clipPath></defs><title>logonavbarPurple</title><g class="cls-2"><polygon class="cls-3" points="32.69 14.46 33.23 20.43 32.69 20.43 32.69 14.46"/><polygon class="cls-4" points="34.09 0 35.95 20.43 33.23 20.43 32.69 14.46 32.69 0 34.09 0"/><polygon class="cls-5" points="36.8 0 38.66 20.43 35.95 20.43 34.09 0 36.8 0"/><polygon class="cls-6" points="39.52 0 41.37 20.43 38.66 20.43 36.8 0 39.52 0"/><polygon class="cls-7" points="42.23 0 44.09 20.43 41.37 20.43 39.52 0 42.23 0"/><polygon class="cls-7" points="42.4 0 44.25 20.43 44.09 20.43 42.23 0 42.4 0"/><polygon class="cls-8" points="42.56 0 44.42 20.43 44.25 20.43 42.4 0 42.56 0"/><polygon class="cls-9" points="42.73 0 44.59 20.43 44.42 20.43 42.56 0 42.73 0"/><polygon class="cls-10" points="42.9 0 44.76 20.43 44.59 20.43 42.73 0 42.9 0"/><polygon class="cls-11" points="43.07 0 44.93 20.43 44.76 20.43 42.9 0 43.07 0"/><polygon class="cls-12" points="43.24 0 45.09 20.43 44.93 20.43 43.07 0 43.24 0"/><polygon class="cls-13" points="43.41 0 45.26 20.43 45.09 20.43 43.24 0 43.41 0"/><polygon class="cls-14" points="43.58 0 45.43 20.43 45.26 20.43 43.41 0 43.58 0"/><polygon class="cls-15" points="43.74 0 45.6 20.43 45.43 20.43 43.58 0 43.74 0"/><polygon class="cls-16" points="43.91 0 45.77 20.43 45.6 20.43 43.74 0 43.91 0"/><polygon class="cls-17" points="44.08 0 45.94 20.43 45.77 20.43 43.91 0 44.08 0"/><polygon class="cls-18" points="44.25 0 46.11 20.43 45.94 20.43 44.08 0 44.25 0"/><polygon class="cls-19" points="44.42 0 46.27 20.43 46.11 20.43 44.25 0 44.42 0"/><polygon class="cls-20" points="44.59 0 46.44 20.43 46.27 20.43 44.42 0 44.59 0"/><polygon class="cls-21" points="44.75 0 46.61 20.43 46.44 20.43 44.59 0 44.75 0"/><polygon class="cls-22" points="44.92 0 46.78 20.43 46.61 20.43 44.75 0 44.92 0"/><polygon class="cls-23" points="45.09 0 46.95 20.43 46.78 20.43 44.92 0 45.09 0"/><polygon class="cls-24" points="45.26 0 47.12 20.43 46.95 20.43 45.09 0 45.26 0"/><polygon class="cls-25" points="45.43 0 47.29 20.43 47.12 20.43 45.26 0 45.43 0"/><polygon class="cls-26" points="45.6 0 47.45 20.43 47.29 20.43 45.43 0 45.6 0"/><polygon class="cls-27" points="45.77 0 47.62 20.43 47.45 20.43 45.6 0 45.77 0"/><polygon class="cls-28" points="45.93 0 47.79 20.43 47.62 20.43 45.77 0 45.93 0"/><polygon class="cls-29" points="46.1 0 47.96 20.43 47.79 20.43 45.93 0 46.1 0"/><polygon class="cls-30" points="46.27 0 48.13 20.43 47.96 20.43 46.1 0 46.27 0"/><polygon class="cls-31" points="46.44 0 48.3 20.43 48.13 20.43 46.27 0 46.44 0"/><polygon class="cls-32" points="46.61 0 48.47 20.43 48.3 20.43 46.44 0 46.61 0"/><polygon class="cls-33" points="46.78 0 48.63 20.43 48.47 20.43 46.61 0 46.78 0"/><polygon class="cls-34" points="46.95 0 48.8 20.43 48.63 20.43 46.78 0 46.95 0"/><polygon class="cls-35" points="47.11 0 48.97 20.43 48.8 20.43 46.95 0 47.11 0"/><polygon class="cls-36" points="47.28 0 49.14 20.43 48.97 20.43 47.11 0 47.28 0"/><polygon class="cls-37" points="47.45 0 49.31 20.43 49.14 20.43 47.28 0 47.45 0"/><polygon class="cls-38" points="47.62 0 49.48 20.43 49.31 20.43 47.45 0 47.62 0"/><polygon class="cls-39" points="47.79 0 49.64 20.43 49.48 20.43 47.62 0 47.79 0"/><polygon class="cls-40" points="47.95 0 49.81 20.43 49.64 20.43 47.79 0 47.95 0"/><polygon class="cls-41" points="48.12 0 49.98 20.43 49.81 20.43 47.95 0 48.12 0"/><polygon class="cls-42" points="48.29 0 50.15 20.43 49.98 20.43 48.12 0 48.29 0"/><polygon class="cls-43" points="48.46 0 50.32 20.43 50.15 20.43 48.29 0 48.46 0"/><polygon class="cls-44" points="48.63 0 50.49 20.43 50.32 20.43 48.46 0 48.63 0"/><polygon class="cls-45" points="48.8 0 50.66 20.43 50.49 20.43 48.63 0 48.8 0"/><polygon class="cls-46" points="48.97 0 50.82 20.43 50.66 20.43 48.8 0 48.97 0"/><polygon class="cls-47" points="49.13 0 50.99 20.43 50.82 20.43 48.97 0 49.13 0"/><polygon class="cls-48" points="49.3 0 51.16 20.43 50.99 20.43 49.13 0 49.3 0"/><polygon class="cls-49" points="49.47 0 51.33 20.43 51.16 20.43 49.3 0 49.47 0"/><polygon class="cls-50" points="49.64 0 51.5 20.43 51.33 20.43 49.47 0 49.64 0"/><polygon class="cls-51" points="49.81 0 51.67 20.43 51.5 20.43 49.64 0 49.81 0"/><polygon class="cls-52" points="49.98 0 51.83 20.43 51.67 20.43 49.81 0 49.98 0"/><polygon class="cls-53" points="50.15 0 52 20.43 51.83 20.43 49.98 0 50.15 0"/><polygon class="cls-54" points="50.31 0 52.17 20.43 52 20.43 50.15 0 50.31 0"/><polygon class="cls-55" points="50.48 0 52.34 20.43 52.17 20.43 50.31 0 50.48 0"/><polygon class="cls-56" points="50.65 0 52.51 20.43 52.34 20.43 50.48 0 50.65 0"/><polygon class="cls-57" points="50.82 0 52.68 20.43 52.51 20.43 50.65 0 50.82 0"/><polygon class="cls-58" points="50.99 0 52.84 20.43 52.68 20.43 50.82 0 50.99 0"/><polygon class="cls-59" points="51.16 0 53.01 20.43 52.84 20.43 50.99 0 51.16 0"/><polygon class="cls-60" points="51.33 0 53.18 20.43 53.01 20.43 51.16 0 51.33 0"/><polygon class="cls-61" points="51.49 0 53.35 20.43 53.18 20.43 51.33 0 51.49 0"/><polygon class="cls-62" points="51.66 0 53.52 20.43 53.35 20.43 51.49 0 51.66 0"/><polygon class="cls-63" points="51.83 0 53.69 20.43 53.52 20.43 51.66 0 51.83 0"/><polygon class="cls-64" points="52 0 53.86 20.43 53.69 20.43 51.83 0 52 0"/><polygon class="cls-65" points="52.17 0 54.02 20.43 53.86 20.43 52 0 52.17 0"/><polygon class="cls-66" points="52.34 0 54.19 20.43 54.02 20.43 52.17 0 52.34 0"/><polygon class="cls-67" points="52.5 0 54.36 20.43 54.19 20.43 52.34 0 52.5 0"/><polygon class="cls-68" points="52.67 0 54.53 20.43 54.36 20.43 52.5 0 52.67 0"/><polygon class="cls-69" points="52.84 0 54.7 20.43 54.53 20.43 52.67 0 52.84 0"/><polygon class="cls-70" points="53.01 0 54.87 20.43 54.7 20.43 52.84 0 53.01 0"/><polygon class="cls-71" points="53.18 0 55.03 20.43 54.87 20.43 53.01 0 53.18 0"/><polygon class="cls-72" points="53.35 0 55.2 20.43 55.03 20.43 53.18 0 53.35 0"/><polygon class="cls-73" points="53.52 0 55.37 20.43 55.2 20.43 53.35 0 53.52 0"/><polygon class="cls-74" points="53.68 0 55.54 20.43 55.37 20.43 53.52 0 53.68 0"/><polygon class="cls-75" points="53.85 0 55.71 20.43 55.54 20.43 53.68 0 53.85 0"/><polygon class="cls-76" points="54.02 0 55.88 20.43 55.71 20.43 53.85 0 54.02 0"/><polygon class="cls-77" points="54.19 0 56.05 20.43 55.88 20.43 54.02 0 54.19 0"/><polygon class="cls-78" points="54.36 0 56.21 20.43 56.05 20.43 54.19 0 54.36 0"/><polygon class="cls-79" points="54.53 0 56.38 20.43 56.21 20.43 54.36 0 54.53 0"/><polygon class="cls-80" points="54.69 0 56.55 20.43 56.38 20.43 54.53 0 54.69 0"/><polygon class="cls-81" points="54.86 0 56.72 20.43 56.55 20.43 54.69 0 54.86 0"/><polygon class="cls-82" points="55.03 0 56.89 20.43 56.72 20.43 54.86 0 55.03 0"/><polygon class="cls-83" points="55.2 0 57.06 20.43 56.89 20.43 55.03 0 55.2 0"/><polygon class="cls-84" points="55.37 0 57.23 20.43 57.06 20.43 55.2 0 55.37 0"/><polygon class="cls-85" points="55.54 0 57.39 20.43 57.23 20.43 55.37 0 55.54 0"/><polygon class="cls-86" points="55.7 0 57.56 20.43 57.39 20.43 55.54 0 55.7 0"/><polygon class="cls-87" points="55.87 0 57.73 20.43 57.56 20.43 55.7 0 55.87 0"/><polygon class="cls-88" points="56.04 0 57.9 20.43 57.73 20.43 55.87 0 56.04 0"/><polygon class="cls-89" points="56.21 0 58.07 20.43 57.9 20.43 56.04 0 56.21 0"/><polygon class="cls-90" points="56.38 0 58.24 20.43 58.07 20.43 56.21 0 56.38 0"/><polygon class="cls-91" points="56.55 0 58.4 20.43 58.24 20.43 56.38 0 56.55 0"/><polygon class="cls-92" points="56.72 0 58.57 20.43 58.4 20.43 56.55 0 56.72 0"/><polygon class="cls-93" points="56.88 0 58.74 20.43 58.57 20.43 56.72 0 56.88 0"/><polygon class="cls-94" points="57.05 0 58.91 20.43 58.74 20.43 56.88 0 57.05 0"/><polygon class="cls-95" points="57.22 0 59.08 20.43 58.91 20.43 57.05 0 57.22 0"/><polygon class="cls-96" points="57.39 0 59.25 20.43 59.08 20.43 57.22 0 57.39 0"/><polygon class="cls-97" points="57.56 0 59.41 20.43 59.25 20.43 57.39 0 57.56 0"/><polygon class="cls-98" points="57.73 0 59.58 20.43 59.41 20.43 57.56 0 57.73 0"/><polygon class="cls-99" points="57.9 0 59.75 20.43 59.58 20.43 57.73 0 57.9 0"/><polygon class="cls-100" points="58.06 0 59.92 20.43 59.75 20.43 57.9 0 58.06 0"/><polygon class="cls-101" points="58.23 0 60.09 20.43 59.92 20.43 58.06 0 58.23 0"/><polygon class="cls-102" points="58.4 0 60.26 20.43 60.09 20.43 58.23 0 58.4 0"/><polygon class="cls-103" points="58.57 0 60.43 20.43 60.26 20.43 58.4 0 58.57 0"/><polygon class="cls-104" points="58.74 0 60.59 20.43 60.43 20.43 58.57 0 58.74 0"/><polygon class="cls-105" points="58.91 0 60.76 20.43 60.59 20.43 58.74 0 58.91 0"/><polygon class="cls-106" points="59.07 0 60.93 20.43 60.76 20.43 58.91 0 59.07 0"/><polygon class="cls-107" points="59.24 0 61.1 20.43 60.93 20.43 59.07 0 59.24 0"/><polygon class="cls-108" points="59.41 0 61.27 20.43 61.1 20.43 59.24 0 59.41 0"/><polygon class="cls-109" points="59.58 0 61.44 20.43 61.27 20.43 59.41 0 59.58 0"/><polygon class="cls-110" points="59.75 0 61.6 20.43 61.44 20.43 59.58 0 59.75 0"/><polygon class="cls-111" points="59.92 0 61.77 20.43 61.6 20.43 59.75 0 59.92 0"/><polygon class="cls-112" points="60.09 0 61.94 20.43 61.77 20.43 59.92 0 60.09 0"/><polygon class="cls-113" points="60.25 0 62.11 20.43 61.94 20.43 60.09 0 60.25 0"/><polygon class="cls-114" points="60.42 0 62.28 20.43 62.11 20.43 60.25 0 60.42 0"/><polygon class="cls-115" points="60.59 0 62.45 20.43 62.28 20.43 60.42 0 60.59 0"/><polygon class="cls-116" points="60.76 0 62.62 20.43 62.45 20.43 60.59 0 60.76 0"/><polygon class="cls-117" points="60.93 0 62.78 20.43 62.62 20.43 60.76 0 60.93 0"/><polygon class="cls-118" points="61.1 0 62.95 20.43 62.78 20.43 60.93 0 61.1 0"/><polygon class="cls-119" points="61.26 0 63.12 20.43 62.95 20.43 61.1 0 61.26 0"/><polygon class="cls-120" points="61.43 0 63.29 20.43 63.12 20.43 61.26 0 61.43 0"/><polygon class="cls-121" points="61.6 0 63.46 20.43 63.29 20.43 61.43 0 61.6 0"/><polygon class="cls-122" points="61.77 0 63.63 20.43 63.46 20.43 61.6 0 61.77 0"/><polygon class="cls-123" points="61.94 0 63.8 20.43 63.63 20.43 61.77 0 61.94 0"/><polygon class="cls-124" points="62.11 0 63.96 20.43 63.8 20.43 61.94 0 62.11 0"/><polygon class="cls-125" points="62.27 0 64.13 20.43 63.96 20.43 62.11 0 62.27 0"/><polygon class="cls-126" points="62.44 0 64.3 20.43 64.13 20.43 62.27 0 62.44 0"/><polygon class="cls-127" points="62.61 0 64.47 20.43 64.3 20.43 62.44 0 62.61 0"/><polygon class="cls-128" points="62.78 0 64.64 20.43 64.47 20.43 62.61 0 62.78 0"/><polygon class="cls-129" points="62.95 0 64.81 20.43 64.64 20.43 62.78 0 62.95 0"/><polygon class="cls-130" points="63.12 0 64.97 20.43 64.81 20.43 62.95 0 63.12 0"/><polygon class="cls-131" points="63.29 0 65.14 20.43 64.97 20.43 63.12 0 63.29 0"/><polygon class="cls-132" points="63.45 0 65.31 20.43 65.14 20.43 63.29 0 63.45 0"/><polygon class="cls-133" points="63.62 0 65.48 20.43 65.31 20.43 63.45 0 63.62 0"/><polygon class="cls-134" points="63.79 0 65.65 20.43 65.48 20.43 63.62 0 63.79 0"/><polygon class="cls-135" points="63.96 0 65.82 20.43 65.65 20.43 63.79 0 63.96 0"/><polygon class="cls-136" points="64.13 0 65.98 20.43 65.82 20.43 63.96 0 64.13 0"/><polygon class="cls-137" points="64.3 0 66.15 20.43 65.98 20.43 64.13 0 64.3 0"/><polygon class="cls-138" points="64.47 0 66.32 20.43 66.15 20.43 64.3 0 64.47 0"/><polygon class="cls-139" points="64.63 0 66.49 20.43 66.32 20.43 64.47 0 64.63 0"/><polygon class="cls-140" points="64.8 0 66.66 20.43 66.49 20.43 64.63 0 64.8 0"/><polygon class="cls-141" points="64.97 0 66.83 20.43 66.66 20.43 64.8 0 64.97 0"/><polygon class="cls-142" points="65.14 0 67 20.43 66.83 20.43 64.97 0 65.14 0"/><polygon class="cls-143" points="65.31 0 67.17 20.43 67 20.43 65.14 0 65.31 0"/><polygon class="cls-144" points="65.48 0 67.33 20.43 67.17 20.43 65.31 0 65.48 0"/><polygon class="cls-145" points="65.64 0 67.5 20.43 67.33 20.43 65.48 0 65.64 0"/><polygon class="cls-146" points="65.81 0 67.67 20.43 67.5 20.43 65.64 0 65.81 0"/><polygon class="cls-147" points="65.98 0 67.84 20.43 67.67 20.43 65.81 0 65.98 0"/><polygon class="cls-148" points="66.15 0 68.01 20.43 67.84 20.43 65.98 0 66.15 0"/><polygon class="cls-149" points="66.32 0 68.17 20.43 68.01 20.43 66.15 0 66.32 0"/><polygon class="cls-150" points="66.49 0 68.34 20.43 68.17 20.43 66.32 0 66.49 0"/><polygon class="cls-151" points="66.66 0 68.51 20.43 68.34 20.43 66.49 0 66.66 0"/><polygon class="cls-152" points="66.82 0 68.68 20.43 68.51 20.43 66.66 0 66.82 0"/><polygon class="cls-153" points="66.99 0 68.85 20.43 68.68 20.43 66.82 0 66.99 0"/><polygon class="cls-154" points="67.16 0 69.02 20.43 68.85 20.43 66.99 0 67.16 0"/><polygon class="cls-155" points="67.33 0 69.19 20.43 69.02 20.43 67.16 0 67.33 0"/><polygon class="cls-156" points="67.5 0 69.36 20.43 69.19 20.43 67.33 0 67.5 0"/><polygon class="cls-157" points="67.67 0 69.52 20.43 69.36 20.43 67.5 0 67.67 0"/><polygon class="cls-158" points="67.83 0 69.69 20.43 69.52 20.43 67.67 0 67.83 0"/><polygon class="cls-159" points="68 0 69.86 20.43 69.69 20.43 67.83 0 68 0"/><polygon class="cls-160" points="68.17 0 70.03 20.43 69.86 20.43 68 0 68.17 0"/><polygon class="cls-161" points="68.34 0 70.2 20.43 70.03 20.43 68.17 0 68.34 0"/><polygon class="cls-162" points="68.51 0 70.37 20.43 70.2 20.43 68.34 0 68.51 0"/><polygon class="cls-163" points="68.68 0 70.53 20.43 70.37 20.43 68.51 0 68.68 0"/><polygon class="cls-164" points="68.84 0 70.7 20.43 70.53 20.43 68.68 0 68.84 0"/><polygon class="cls-165" points="69.01 0 70.87 20.43 70.7 20.43 68.84 0 69.01 0"/><polygon class="cls-166" points="69.18 0 71.04 20.43 70.87 20.43 69.01 0 69.18 0"/><polygon class="cls-167" points="69.35 0 71.21 20.43 71.04 20.43 69.18 0 69.35 0"/><polygon class="cls-168" points="69.52 0 71.38 20.43 71.21 20.43 69.35 0 69.52 0"/><polygon class="cls-169" points="69.69 0 71.55 20.43 71.38 20.43 69.52 0 69.69 0"/><polygon class="cls-170" points="69.86 0 71.71 20.43 71.55 20.43 69.69 0 69.86 0"/><polygon class="cls-171" points="70.03 0 71.88 20.43 71.71 20.43 69.86 0 70.03 0"/><polygon class="cls-172" points="70.19 0 72.05 20.43 71.88 20.43 70.03 0 70.19 0"/><polygon class="cls-173" points="70.36 0 72.22 20.43 72.05 20.43 70.19 0 70.36 0"/><polygon class="cls-174" points="70.53 0 72.39 20.43 72.22 20.43 70.36 0 70.53 0"/><polygon class="cls-175" points="70.7 0 72.56 20.43 72.39 20.43 70.53 0 70.7 0"/><polygon class="cls-176" points="70.87 0 72.72 20.43 72.56 20.43 70.7 0 70.87 0"/><polygon class="cls-177" points="71.03 0 72.89 20.43 72.72 20.43 70.87 0 71.03 0"/><polygon class="cls-178" points="71.2 0 73.06 20.43 72.89 20.43 71.03 0 71.2 0"/><polygon class="cls-179" points="71.37 0 73.23 20.43 73.06 20.43 71.2 0 71.37 0"/><polygon class="cls-180" points="71.54 0 73.4 20.43 73.23 20.43 71.37 0 71.54 0"/><polygon class="cls-181" points="71.71 0 73.57 20.43 73.4 20.43 71.54 0 71.71 0"/><polygon class="cls-182" points="71.88 0 73.73 20.43 73.57 20.43 71.71 0 71.88 0"/><polygon class="cls-183" points="72.05 0 73.9 20.43 73.73 20.43 71.88 0 72.05 0"/><polygon class="cls-184" points="72.22 0 74.07 20.43 73.9 20.43 72.05 0 72.22 0"/><polygon class="cls-185" points="72.38 0 74.24 20.43 74.07 20.43 72.22 0 72.38 0"/><polygon class="cls-186" points="72.55 0 74.41 20.43 74.24 20.43 72.38 0 72.55 0"/><polygon class="cls-187" points="72.72 0 74.58 20.43 74.41 20.43 72.55 0 72.72 0"/><polygon class="cls-188" points="72.89 0 74.75 20.43 74.58 20.43 72.72 0 72.89 0"/><polygon class="cls-189" points="73.06 0 74.91 20.43 74.75 20.43 72.89 0 73.06 0"/><polygon class="cls-190" points="73.22 0 75.08 20.43 74.91 20.43 73.06 0 73.22 0"/><polygon class="cls-191" points="73.39 0 75.25 20.43 75.08 20.43 73.22 0 73.39 0"/><polygon class="cls-192" points="73.56 0 75.42 20.43 75.25 20.43 73.39 0 73.56 0"/><polygon class="cls-193" points="73.73 0 75.59 20.43 75.42 20.43 73.56 0 73.73 0"/><polygon class="cls-194" points="73.9 0 75.76 20.43 75.59 20.43 73.73 0 73.9 0"/><polygon class="cls-195" points="74.07 0 75.92 20.43 75.76 20.43 73.9 0 74.07 0"/><polygon class="cls-196" points="74.24 0 76.09 20.43 75.92 20.43 74.07 0 74.24 0"/><polygon class="cls-197" points="74.41 0 76.26 20.43 76.09 20.43 74.24 0 74.41 0"/><polygon class="cls-198" points="74.57 0 76.43 20.43 76.26 20.43 74.41 0 74.57 0"/><polygon class="cls-199" points="74.74 0 76.6 20.43 76.43 20.43 74.57 0 74.74 0"/><polygon class="cls-200" points="74.91 0 76.77 20.43 76.6 20.43 74.74 0 74.91 0"/><polygon class="cls-201" points="75.08 0 76.94 20.43 76.77 20.43 74.91 0 75.08 0"/><polygon class="cls-202" points="75.25 0 77.1 20.43 76.94 20.43 75.08 0 75.25 0"/><polygon class="cls-203" points="75.42 0 77.27 20.43 77.1 20.43 75.25 0 75.42 0"/><polygon class="cls-204" points="75.58 0 77.44 20.43 77.27 20.43 75.42 0 75.58 0"/><polygon class="cls-205" points="75.75 0 77.61 20.43 77.44 20.43 75.58 0 75.75 0"/><polygon class="cls-206" points="75.92 0 77.78 20.43 77.61 20.43 75.75 0 75.92 0"/><polygon class="cls-207" points="76.09 0 77.95 20.43 77.78 20.43 75.92 0 76.09 0"/><polygon class="cls-208" points="76.26 0 78.11 20.43 77.95 20.43 76.09 0 76.26 0"/><polygon class="cls-209" points="76.43 0 78.15 18.91 78.15 20.43 78.11 20.43 76.26 0 76.43 0"/><polygon class="cls-210" points="76.59 0 78.15 17.06 78.15 18.91 76.43 0 76.59 0"/><polygon class="cls-211" points="76.76 0 78.15 15.21 78.15 17.06 76.59 0 76.76 0"/><polygon class="cls-212" points="76.93 0 78.15 13.35 78.15 15.21 76.76 0 76.93 0"/><polygon class="cls-213" points="77.1 0 78.15 11.5 78.15 13.35 76.93 0 77.1 0"/><polygon class="cls-214" points="77.27 0 78.15 9.65 78.15 11.5 77.1 0 77.27 0"/><polygon class="cls-215" points="77.44 0 78.15 7.79 78.15 9.65 77.27 0 77.44 0"/><polygon class="cls-216" points="77.61 0 78.15 5.94 78.15 7.79 77.44 0 77.61 0"/><polygon class="cls-217" points="77.77 0 78.15 4.09 78.15 5.94 77.61 0 77.77 0"/><polygon class="cls-218" points="77.94 0 78.15 2.23 78.15 4.09 77.77 0 77.94 0"/><polygon class="cls-219" points="78.11 0 78.15 0.38 78.15 2.23 77.94 0 78.11 0"/><polygon class="cls-220" points="78.15 0.38 78.11 0 78.15 0 78.15 0.38"/></g><path class="cls-221" d="M0,28.74v0h0v0Z"/><path class="cls-221" d="M59.63,28.82a7.93,7.93,0,0,0-7.93,7.93H71.63a30.37,30.37,0,0,1-5.08,14.42c-4,5.6-9.6,7.89-19.28,7.89-6.1,0-10.29-2.13-15-7.6a54.12,54.12,0,0,1-3.77-5.17,86.3,86.3,0,0,0-7.1-9.44,17.68,17.68,0,0,0-1.78-1.79,24,24,0,0,0,3.84-1.8c6.46-3.73,9.87-9.27,9.87-16A15.41,15.41,0,0,0,25.82,3.63,25.79,25.79,0,0,0,13.45,0H0V8H0V8H13.32a20.71,20.71,0,0,1,6.54,1.5c3.76,1.61,5.59,4.16,5.59,7.8,0,3.86-1.93,6.85-5.91,9.15a18.83,18.83,0,0,1-9.43,2.42H1.79c-.58,0-1.17,0-1.74-.05v8H1.62a31.75,31.75,0,0,1,4.92.65c4,.87,7,2.43,8.93,4.65A80.19,80.19,0,0,1,22,50.71a60.51,60.51,0,0,0,4.32,5.89C32.49,63.88,38.77,67,47.27,67,59.51,67,67.44,63.53,73,55.79s6.73-16.71,6.8-22.95l0-4Z"/></svg>